<svg width="127" height="19" viewBox="0 0 127 19" fill="none" xmlns="http://www.w3.org/2000/svg">
<path d="M0.975 18V0.325H7.625C8.95833 0.325 10.1083 0.533333 11.075 0.949999C12.0583 1.35 12.8167 1.99167 13.35 2.875C13.9 3.75833 14.175 4.91667 14.175 6.35C14.175 7.71667 13.875 8.85833 13.275 9.775C12.675 10.6917 11.8583 11.3833 10.825 11.85C9.79167 12.3 8.60833 12.525 7.275 12.525H4.1V18H0.975ZM4.1 9.725H7.225C8.375 9.725 9.3 9.45 10 8.9C10.7 8.35 11.05 7.48333 11.05 6.3C11.05 5.26667 10.7583 4.49167 10.175 3.975C9.59167 3.44167 8.69167 3.175 7.475 3.175H4.1V9.725ZM17.1371 18V0.325H24.1121C25.0121 0.325 25.8621 0.416666 26.6621 0.599999C27.4621 0.766666 28.1704 1.06667 28.7871 1.5C29.4038 1.91667 29.8871 2.49167 30.2371 3.225C30.5871 3.95833 30.7621 4.86667 30.7621 5.95C30.7621 6.85 30.6038 7.64167 30.2871 8.325C29.9704 9.00833 29.5288 9.58333 28.9621 10.05C28.4121 10.5167 27.7538 10.875 26.9871 11.125L30.8621 18H27.3621L23.8871 11.625H20.2621V18H17.1371ZM20.2621 8.85H23.6871C24.2538 8.85 24.7704 8.80833 25.2371 8.725C25.7204 8.625 26.1371 8.46667 26.4871 8.25C26.8538 8.03333 27.1288 7.74167 27.3121 7.375C27.5121 6.99167 27.6204 6.50833 27.6371 5.925C27.6371 5.225 27.4871 4.675 27.1871 4.275C26.9038 3.875 26.4871 3.59167 25.9371 3.425C25.4038 3.25833 24.7621 3.175 24.0121 3.175H20.2621V8.85ZM41.7049 18.2C39.8882 18.2 38.3382 17.8167 37.0549 17.05C35.7882 16.2833 34.8132 15.2167 34.1299 13.85C33.4632 12.4833 33.1299 10.925 33.1299 9.175C33.1299 7.39167 33.4715 5.825 34.1549 4.475C34.8382 3.10833 35.8215 2.04167 37.1049 1.275C38.3882 0.491666 39.9382 0.0999995 41.7549 0.0999995C43.5715 0.0999995 45.1132 0.483333 46.3799 1.25C47.6632 2.01667 48.6465 3.08333 49.3299 4.45C50.0132 5.8 50.3549 7.35833 50.3549 9.125C50.3549 10.875 50.0132 12.4333 49.3299 13.8C48.6632 15.1667 47.6799 16.2417 46.3799 17.025C45.0966 17.8083 43.5382 18.2 41.7049 18.2ZM41.7549 15.3C43.0216 15.3 44.0549 15.0083 44.8549 14.425C45.6549 13.8417 46.2382 13.0833 46.6049 12.15C46.9882 11.2167 47.1799 10.225 47.1799 9.175C47.1799 8.375 47.0716 7.60833 46.8549 6.875C46.6549 6.14167 46.3299 5.48333 45.8799 4.9C45.4466 4.31667 44.8882 3.85833 44.2049 3.525C43.5216 3.175 42.7049 3 41.7549 3C40.5049 3 39.4715 3.29167 38.6549 3.875C37.8549 4.45833 37.2632 5.21667 36.8799 6.15C36.4965 7.08333 36.3049 8.09167 36.3049 9.175C36.3049 10.2417 36.4965 11.2417 36.8799 12.175C37.2632 13.1083 37.8549 13.8667 38.6549 14.45C39.4715 15.0167 40.5049 15.3 41.7549 15.3ZM53.3188 18V0.325H65.6688V3.175H56.4438V8.45H64.3438V11.3H56.4438V18H53.3188ZM68.3578 18V0.325H71.4828V18H68.3578ZM79.2379 18V3.175H73.7129V0.325H87.8629V3.175H82.3379V18H79.2379ZM90.0863 18V0.325H93.2113V7.925H95.7363L100.736 0.325H104.286L98.3863 8.975L104.286 18H100.661L95.8863 10.775H93.2113V18H90.0863ZM106.517 18V0.325H109.642V18H106.517ZM117.397 18V3.175H111.872V0.325H126.022V3.175H120.497V18H117.397Z" fill="#2A343E"/>
</svg>
