<svg width="26" height="22" viewBox="0 0 26 22" fill="none" xmlns="http://www.w3.org/2000/svg">
<path d="M23.7911 0.641603L1.15045 9.40283C1.13698 9.40802 1.12392 9.41423 1.11139 9.42139C0.927797 9.52539 -0.353453 10.3091 1.45319 11.0117L1.47174 11.0186L6.86285 12.7603C6.90399 12.7736 6.94754 12.7778 6.99047 12.7726C7.0334 12.7674 7.07467 12.7528 7.11139 12.73L20.483 4.38721C20.5158 4.36675 20.5523 4.35297 20.5904 4.34668C20.7764 4.31592 21.3121 4.2583 20.9732 4.68848C20.5899 5.17676 11.4566 13.3613 10.4429 14.269C10.3845 14.3215 10.3483 14.3944 10.3419 14.4727L9.89948 19.7461C9.89942 19.7998 9.91188 19.8528 9.93586 19.9008C9.95985 19.9489 9.9947 19.9907 10.0377 20.023C10.0986 20.0613 10.1703 20.0791 10.2421 20.0737C10.314 20.0682 10.3821 20.0398 10.4366 19.9927L13.6397 17.1299C13.6903 17.0847 13.7549 17.0581 13.8226 17.0547C13.8904 17.0512 13.9573 17.071 14.0123 17.1108L19.6006 21.1685L19.6187 21.1807C19.754 21.2642 21.2149 22.1143 21.6368 20.2158L25.4942 1.87354C25.4996 1.81543 25.5518 1.17676 25.0953 0.799318C24.6158 0.404787 23.9371 0.604005 23.835 0.62549C23.82 0.62968 23.8053 0.635069 23.7911 0.641603Z" fill="white"/>
</svg>
