<svg width="32" height="32" viewBox="0 0 32 32" fill="none" xmlns="http://www.w3.org/2000/svg">
<g clip-path="url(#clip0_985_1569)">
<mask id="mask0_985_1569" style="mask-type:luminance" maskUnits="userSpaceOnUse" x="0" y="0" width="32" height="32">
<path d="M32 0H0V32H32V0Z" fill="white"/>
</mask>
<g mask="url(#mask0_985_1569)">
<path fill-rule="evenodd" clip-rule="evenodd" d="M26.7152 5.32086C23.9952 2.59766 20.3778 1.0973 16.524 1.0957C8.58298 1.0957 2.12014 7.55836 2.11694 15.5015C2.11588 18.0407 2.7792 20.5194 4.04 22.7042L1.99609 30.1696L9.6335 28.1662C11.7379 29.3142 14.1071 29.919 16.5181 29.9198H16.5242C24.4644 29.9198 30.9278 23.4566 30.9308 15.5131C30.9324 11.6634 29.4354 8.04388 26.7152 5.32086ZM16.524 27.4868H16.519C14.3704 27.4858 12.2632 26.9084 10.4244 25.8176L9.98734 25.558L5.45518 26.747L6.66488 22.3282L6.38008 21.8752C5.18138 19.9685 4.5484 17.7649 4.54946 15.5024C4.55196 8.90026 9.92382 3.52894 16.5288 3.52894C19.7272 3.53 22.7338 4.77714 24.9946 7.04056C27.2552 9.30398 28.4996 12.3125 28.4986 15.5122C28.4956 22.1148 23.1242 27.4868 16.524 27.4868ZM23.0922 18.5184C22.7324 18.3381 20.9624 17.4675 20.6324 17.3472C20.3026 17.2271 20.0624 17.1673 19.8227 17.5275C19.5826 17.8877 18.8928 18.6987 18.6827 18.9388C18.4726 19.1791 18.2629 19.2092 17.9028 19.0289C17.5428 18.8488 16.3829 18.4685 15.0078 17.2422C13.9378 16.2876 13.2154 15.1088 13.0053 14.7486C12.7955 14.388 13.0035 14.212 13.1632 14.0139C13.5529 13.53 13.9431 13.0227 14.0631 12.7826C14.1832 12.5423 14.1231 12.332 14.0329 12.1519C13.9431 11.9718 13.2232 10.1999 12.9233 9.47894C12.6309 8.7773 12.3343 8.87206 12.1132 8.86104C11.9035 8.85058 11.6634 8.84844 11.4233 8.84844C11.1834 8.84844 10.7933 8.93842 10.4633 9.299C10.1334 9.65942 9.20352 10.5302 9.20352 12.302C9.20352 14.0739 10.4934 15.7856 10.6734 16.0259C10.8533 16.2662 13.2118 19.9022 16.8228 21.4612C17.6817 21.8326 18.3521 22.0538 18.8751 22.2198C19.7375 22.4938 20.522 22.455 21.1424 22.3624C21.8342 22.259 23.272 21.4914 23.5722 20.6506C23.8722 19.8097 23.8722 19.0891 23.782 18.9388C23.6922 18.7887 23.4522 18.6987 23.0922 18.5184Z" fill="white"/>
</g>
</g>
<defs>
<clipPath id="clip0_985_1569">
<rect width="32" height="32" fill="white"/>
</clipPath>
</defs>
</svg>
